<svg xmlns="http://www.w3.org/2000/svg" xmlns:xlink="http://www.w3.org/1999/xlink" width="1100" zoomAndPan="magnify" viewBox="0 0 824.88 449.999984" height="600" preserveAspectRatio="xMidYMid meet" version="1.0"><defs><clipPath id="9264548b8b"><path d="M 141 45.027344 L 172 45.027344 L 172 74 L 141 74 Z M 141 45.027344 " clip-rule="nonzero"/></clipPath><clipPath id="8d6f903069"><path d="M 0 247 L 357 247 L 357 371.980469 L 0 371.980469 Z M 0 247 " clip-rule="nonzero"/></clipPath><clipPath id="7252c33a2d"><path d="M 680 90 L 824.761719 90 L 824.761719 225 L 680 225 Z M 680 90 " clip-rule="nonzero"/></clipPath></defs><g clip-path="url(#9264548b8b)"><path fill="#000000" d="M 171.542969 53.886719 C 171.355469 56.199219 170.824219 58.433594 169.953125 60.585938 C 169.082031 62.734375 167.90625 64.707031 166.429688 66.496094 C 165.800781 67.242188 165.050781 67.839844 164.1875 68.292969 C 163.320312 68.742188 162.402344 69.015625 161.433594 69.109375 C 159.640625 68.839844 158.089844 68.082031 156.773438 66.839844 L 153.367188 70.8125 C 152.667969 71.617188 151.832031 72.238281 150.859375 72.675781 C 149.886719 73.113281 148.867188 73.324219 147.800781 73.3125 C 143.484375 73.3125 141.4375 69.335938 141.4375 61.953125 C 141.664062 59.507812 142.269531 57.160156 143.253906 54.910156 C 144.503906 51.613281 145.527344 49.910156 146.324219 49.910156 C 147.117188 49.910156 147.003906 49.910156 147.34375 50.820312 C 147.695312 52.070312 147.695312 53.320312 147.34375 54.570312 C 146.929688 55.824219 146.664062 57.113281 146.550781 58.429688 C 146.550781 61.386719 148.140625 62.519531 151.207031 61.953125 C 154.273438 61.386719 155.636719 58.886719 157 54.339844 C 157.375 51.761719 158.207031 49.335938 159.5 47.070312 C 160.75 47.070312 161.316406 48.09375 161.316406 50.136719 C 161.195312 50.949219 161.003906 51.746094 160.75 52.523438 C 160.535156 53.546875 160.535156 54.570312 160.75 55.589844 C 161.296875 56.1875 161.929688 56.660156 162.65625 57.015625 C 163.382812 57.367188 164.148438 57.574219 164.953125 57.636719 C 166.089844 57.636719 167 56.273438 167.792969 53.433594 C 168.589844 50.59375 168.816406 48.546875 169.382812 46.164062 C 169.382812 45.480469 169.382812 45.140625 170.066406 45.027344 C 170.746094 44.914062 170.976562 46.046875 171.429688 47.980469 C 171.808594 49.941406 171.847656 51.910156 171.542969 53.886719 Z M 171.542969 53.886719 " fill-opacity="1" fill-rule="nonzero"/></g><path fill="#000000" d="M 199.828125 152.269531 C 197.445312 141.816406 195.058594 131.480469 192.671875 120.914062 C 194.277344 117.242188 195.527344 113.457031 196.421875 109.554688 C 196.566406 107.847656 196.566406 106.144531 196.421875 104.441406 C 196.421875 104.441406 195.511719 103.644531 193.582031 102.511719 C 192.039062 101.71875 190.714844 100.660156 189.605469 99.328125 C 188.871094 98.269531 188.457031 97.09375 188.355469 95.808594 C 188.171875 94.5625 187.714844 93.425781 186.992188 92.398438 C 186.3125 91.605469 185.855469 91.261719 185.289062 91.261719 C 184.71875 91.261719 182.789062 94.214844 181.878906 100.351562 C 180.972656 106.484375 180.0625 111.03125 180.0625 111.03125 C 182.011719 113.496094 183.335938 116.261719 184.039062 119.324219 C 189.417969 149.617188 193.808594 172.792969 197.21875 188.847656 C 197.105469 189.871094 196.742188 190.800781 196.132812 191.632812 C 195.527344 192.464844 194.75 193.089844 193.808594 193.507812 C 191.476562 194.800781 188.976562 195.445312 186.3125 195.4375 C 180.0625 194.527344 174.949219 187.710938 170.859375 174.761719 C 165.71875 159.027344 161.929688 142.96875 159.5 126.59375 C 157.117188 112.632812 155.488281 98.582031 154.617188 84.445312 C 154.617188 80.46875 153.933594 78.425781 152.910156 78.425781 C 151.890625 78.425781 150.753906 80.242188 149.617188 83.878906 C 148.539062 87.820312 148.046875 91.835938 148.140625 95.921875 C 148.140625 104.101562 148.140625 111.03125 149.277344 117.050781 C 150.414062 123.070312 150.980469 131.707031 151.890625 139.089844 C 152.796875 146.472656 153.820312 154.652344 155.636719 167.492188 C 156.757812 173.730469 157.480469 180.015625 157.796875 186.347656 C 157.796875 192.371094 154.503906 195.4375 148.140625 195.4375 C 146.695312 195.214844 145.277344 194.890625 143.878906 194.46875 C 142.480469 194.042969 141.117188 193.523438 139.792969 192.90625 C 138.46875 192.292969 137.195312 191.585938 135.96875 190.789062 C 134.746094 189.992188 133.582031 189.113281 132.484375 188.152344 C 131.382812 187.195312 130.355469 186.160156 129.398438 185.054688 C 128.445312 183.949219 127.574219 182.78125 126.785156 181.554688 C 125.992188 180.324219 125.292969 179.046875 124.683594 177.71875 C 124.078125 176.390625 123.5625 175.027344 123.148438 173.625 C 119.160156 162.5625 116.394531 151.203125 114.855469 139.542969 C 114.285156 135.910156 113.492188 134.089844 112.695312 134.089844 C 111.902344 134.089844 110.878906 135.683594 110.195312 138.976562 C 109.847656 141.589844 109.847656 144.203125 110.195312 146.816406 C 110.554688 149.429688 110.554688 152.042969 110.195312 154.652344 C 100.882812 159.539062 95.65625 162.492188 94.292969 163.515625 C 93.214844 164.214844 92.183594 164.980469 91.199219 165.804688 C 90.214844 166.632812 89.285156 167.515625 88.410156 168.457031 C 87.535156 169.398438 86.71875 170.390625 85.964844 171.429688 C 85.210938 172.46875 84.523438 173.554688 83.898438 174.679688 C 83.277344 175.804688 82.726562 176.960938 82.246094 178.15625 C 81.769531 179.347656 81.363281 180.5625 81.03125 181.804688 C 80.703125 183.046875 80.449219 184.304688 80.273438 185.578125 C 80.09375 186.851562 79.996094 188.132812 79.976562 189.417969 C 79.976562 194.527344 83.953125 197.027344 91.339844 196.800781 C 94.234375 196.914062 97.070312 196.558594 99.851562 195.742188 C 102.628906 194.925781 105.207031 193.6875 107.582031 192.03125 C 110.390625 188.96875 113.003906 185.75 115.421875 182.375 C 117.65625 190.722656 121.445312 198.296875 126.78125 205.09375 C 128.222656 206.441406 129.785156 207.628906 131.464844 208.65625 C 133.148438 209.683594 134.917969 210.527344 136.773438 211.191406 C 138.632812 211.855469 140.535156 212.324219 142.488281 212.601562 C 144.441406 212.875 146.398438 212.945312 148.367188 212.820312 C 151.660156 212.820312 155.070312 209.867188 158.589844 203.730469 C 160.257812 201.121094 161.507812 198.328125 162.339844 195.347656 C 163.171875 192.367188 163.550781 189.328125 163.476562 186.234375 C 165.300781 193.503906 168.519531 200.09375 173.132812 206.003906 C 174.886719 207.84375 176.890625 209.347656 179.148438 210.515625 C 181.410156 211.683594 183.796875 212.453125 186.3125 212.820312 C 196.535156 212.023438 202.328125 205.207031 203.351562 192.257812 C 203.46875 190.023438 203.46875 187.789062 203.351562 185.554688 C 203.277344 174.34375 202.105469 163.246094 199.828125 152.269531 Z M 104.96875 177.828125 C 101.449219 178.414062 97.925781 178.414062 94.40625 177.828125 L 104.742188 169.878906 C 107.460938 167.636719 109.542969 164.910156 110.992188 161.699219 C 112.242188 167.265625 113.148438 171.695312 113.832031 174.875 C 111.011719 176.257812 108.058594 177.242188 104.96875 177.828125 Z M 104.96875 177.828125 " fill-opacity="1" fill-rule="nonzero"/><path fill="#000000" d="M 241.75 200.210938 C 242.160156 204.410156 241.476562 208.421875 239.703125 212.25 C 239.023438 213.839844 238.226562 214.75 237.546875 214.75 C 236.863281 214.75 234.367188 209.070312 233.003906 197.824219 C 231.410156 183.964844 229.933594 169.992188 228.457031 156.132812 C 227.664062 147.269531 226.1875 137.046875 224.480469 124.550781 C 223.234375 115.347656 222.550781 109.894531 222.550781 108.417969 C 222.332031 102.894531 223.390625 97.632812 225.730469 92.625 C 226.527344 91.261719 227.664062 90.46875 227.664062 90.46875 C 227.664062 90.46875 229.59375 94.332031 230.730469 101.828125 C 230.730469 103.53125 232.773438 117.847656 236.070312 144.882812 C 239.023438 168.96875 240.726562 187.144531 241.75 200.210938 Z M 241.75 200.210938 " fill-opacity="1" fill-rule="nonzero"/><path fill="#000000" d="M 186.425781 323.015625 L 179.496094 319.722656 L 178.132812 319.722656 C 176.882812 319.722656 175.632812 321.082031 174.382812 323.925781 C 173.449219 326.367188 172.386719 328.75 171.203125 331.082031 C 171.058594 331.496094 171.058594 331.914062 171.203125 332.332031 C 171.203125 334.148438 173.359375 335.851562 177.675781 337.328125 C 180.050781 338.472656 182.550781 338.929688 185.175781 338.691406 C 187.21875 335.488281 188.695312 332.042969 189.605469 328.355469 C 189.648438 327.976562 189.648438 327.597656 189.605469 327.21875 C 189.378906 325.402344 188.355469 324.152344 186.425781 323.015625 Z M 186.425781 323.015625 " fill-opacity="1" fill-rule="nonzero"/><path fill="#000000" d="M 287.757812 254.738281 C 286.851562 259.417969 285.183594 263.8125 282.761719 267.917969 C 269.617188 277.398438 255.453125 284.96875 240.273438 290.636719 C 228.289062 296.761719 215.679688 301.039062 202.441406 303.476562 C 198.339844 303.117188 194.554688 301.828125 191.082031 299.613281 C 187.902344 297.632812 184.453125 296.386719 180.746094 295.863281 C 177.4375 296.441406 174.410156 297.691406 171.65625 299.613281 C 169.824219 300.800781 167.867188 301.722656 165.785156 302.378906 C 163.703125 303.035156 161.570312 303.398438 159.386719 303.476562 C 157.5 303.269531 155.671875 302.835938 153.894531 302.171875 C 152.117188 301.507812 150.453125 300.632812 148.894531 299.550781 C 147.335938 298.472656 145.9375 297.214844 144.691406 295.78125 C 143.449219 294.351562 142.402344 292.785156 141.550781 291.09375 C 137.988281 285.050781 134.917969 278.761719 132.347656 272.234375 C 132.40625 273.292969 132.40625 274.355469 132.347656 275.414062 C 132.425781 277.613281 132.308594 279.800781 131.992188 281.976562 C 131.679688 284.152344 131.171875 286.285156 130.472656 288.367188 C 129.773438 290.453125 128.894531 292.460938 127.835938 294.386719 C 126.777344 296.316406 125.554688 298.132812 124.167969 299.839844 C 122.421875 301.8125 120.46875 303.558594 118.316406 305.074219 C 116.160156 306.59375 113.863281 307.847656 111.417969 308.832031 C 108.972656 309.820312 106.449219 310.511719 103.84375 310.910156 C 101.238281 311.3125 98.625 311.40625 95.996094 311.199219 C 94.296875 311.144531 92.695312 310.730469 91.183594 309.953125 C 89.671875 309.179688 88.398438 308.117188 87.363281 306.769531 C 86.144531 305.40625 85.207031 303.875 84.542969 302.175781 C 83.878906 300.476562 83.53125 298.710938 83.5 296.886719 C 83.539062 294.058594 83.925781 291.28125 84.65625 288.550781 C 85.386719 285.820312 86.4375 283.222656 87.816406 280.753906 C 88.140625 279.894531 88.707031 279.25 89.519531 278.824219 C 90.316406 278.824219 90.65625 278.824219 90.65625 280.300781 C 90.328125 283.441406 90.328125 286.585938 90.65625 289.730469 C 91.453125 291.433594 93.949219 292.34375 98.15625 292.34375 C 101.597656 292.441406 104.980469 292.046875 108.304688 291.15625 C 111.632812 290.269531 114.761719 288.921875 117.695312 287.117188 C 119.082031 286.363281 120.34375 285.4375 121.480469 284.339844 C 122.613281 283.242188 123.582031 282.015625 124.382812 280.652344 C 125.183594 279.292969 125.789062 277.847656 126.195312 276.324219 C 126.601562 274.796875 126.796875 273.246094 126.78125 271.667969 C 126.753906 267.078125 126.300781 262.535156 125.417969 258.035156 C 124.164062 252.566406 122.496094 247.226562 120.421875 242.015625 C 120.191406 239.0625 120.191406 236.109375 120.421875 233.15625 C 120.421875 229.746094 120.988281 228.042969 122.125 228.042969 C 123.035156 228.042969 124.167969 229.746094 125.648438 232.925781 C 130.078125 243.378906 134.507812 253.714844 138.824219 264.054688 C 146.207031 278.597656 153.480469 286.09375 160.523438 286.777344 C 164.765625 286.023438 168.855469 284.773438 172.792969 283.027344 C 174.988281 281.691406 177.300781 280.59375 179.722656 279.730469 L 181.539062 279.730469 C 185.324219 280.28125 188.882812 281.496094 192.21875 283.367188 C 195.742188 285.394531 199.53125 286.609375 203.578125 287.003906 C 207.449219 286.710938 211.234375 285.992188 214.9375 284.84375 C 218.8125 283.808594 222.597656 282.523438 226.300781 280.980469 C 224.71875 279.996094 223.28125 278.832031 221.984375 277.492188 C 220.691406 276.148438 219.578125 274.671875 218.648438 273.058594 C 217.714844 271.441406 216.992188 269.738281 216.480469 267.945312 C 215.96875 266.15625 215.683594 264.328125 215.621094 262.464844 C 215.804688 259.179688 216.324219 255.953125 217.175781 252.777344 C 218.03125 249.601562 219.199219 246.546875 220.683594 243.613281 C 222.171875 240.683594 223.941406 237.933594 225.996094 235.367188 C 228.054688 232.800781 230.351562 230.472656 232.890625 228.382812 C 236.246094 226.683594 239.804688 225.777344 243.566406 225.65625 C 247.878906 225.738281 251.894531 226.875 255.609375 229.066406 C 259.695312 231.023438 263.480469 233.445312 266.96875 236.335938 C 269.355469 238.492188 270.605469 239.855469 270.605469 240.3125 C 270.605469 240.765625 269.582031 240.992188 267.539062 240.878906 C 263.089844 239.703125 258.585938 238.832031 254.019531 238.265625 C 247.992188 238.484375 242.234375 239.847656 236.75 242.355469 C 229.480469 245.421875 225.390625 248.148438 225.390625 250.535156 C 225.390625 252.921875 228.003906 257.578125 233.570312 261.894531 C 235.984375 264.203125 238.726562 266.007812 241.796875 267.320312 C 244.867188 268.628906 248.070312 269.359375 251.40625 269.507812 C 252.65625 269.621094 253.90625 269.621094 255.15625 269.507812 C 265.597656 265.207031 275.667969 260.171875 285.375 254.398438 C 285.875 254.101562 286.40625 253.875 286.964844 253.714844 C 287.253906 253.507812 287.582031 253.40625 287.9375 253.417969 C 288.296875 253.425781 288.617188 253.542969 288.894531 253.769531 C 289.175781 253.996094 289.355469 254.285156 289.441406 254.632812 C 289.523438 254.980469 289.496094 255.320312 289.351562 255.648438 Z M 287.757812 254.738281 " fill-opacity="1" fill-rule="nonzero"/><g clip-path="url(#8d6f903069)"><path fill="#000000" d="M 356.375 290.980469 C 356.582031 294.6875 356.410156 298.378906 355.851562 302.054688 C 355.292969 305.726562 354.363281 309.304688 353.0625 312.785156 C 351.761719 316.265625 350.117188 319.574219 348.132812 322.714844 C 346.144531 325.855469 343.855469 328.757812 341.265625 331.421875 C 328.921875 343.007812 306.730469 352.628906 274.695312 360.277344 C 241.773438 367.9375 208.410156 371.722656 174.609375 371.636719 C 148.925781 371.816406 123.402344 369.886719 98.039062 365.84375 C 84.609375 364.300781 71.617188 361.007812 59.074219 355.960938 C 49.855469 352.089844 41.296875 347.09375 33.398438 340.964844 C 29.195312 337.785156 21.132812 331.195312 9.316406 321.3125 C 3.75 316.652344 0.910156 312.90625 0.910156 309.949219 C 0.910156 306.996094 1.589844 308.246094 3.066406 308.246094 C 6.945312 308.816406 10.464844 310.257812 13.632812 312.5625 C 25.710938 319.3125 38.1875 325.226562 51.058594 330.300781 C 63.929688 335.375 77.082031 339.570312 90.515625 342.878906 C 103.949219 346.1875 117.542969 348.585938 131.296875 350.074219 C 145.054688 351.558594 158.847656 352.121094 172.679688 351.757812 C 209.328125 351.824219 245.453125 347.507812 281.058594 338.804688 C 317.863281 329.71875 339.867188 319 347.0625 306.65625 C 347.214844 303.363281 346.960938 300.105469 346.308594 296.875 C 345.65625 293.644531 344.617188 290.542969 343.199219 287.570312 C 340.132812 281.890625 337.0625 276.210938 333.882812 270.757812 C 332.84375 269.421875 332.351562 267.90625 332.40625 266.214844 C 332.519531 263.808594 333.050781 261.496094 333.996094 259.285156 C 335.925781 254.171875 336.949219 251.558594 336.949219 251.445312 C 336.949219 248.945312 337.40625 247.695312 338.3125 247.695312 C 340.472656 247.695312 343.992188 253.601562 348.992188 265.53125 C 352.980469 273.570312 355.441406 282.054688 356.375 290.980469 Z M 356.375 290.980469 " fill-opacity="1" fill-rule="nonzero"/></g><path fill="#000000" d="M 477.59375 305.632812 L 474.980469 304.269531 C 474.980469 304.269531 474.183594 304.953125 473.730469 306.089844 C 473.65625 306.769531 473.65625 307.453125 473.730469 308.132812 C 475.546875 309.496094 476.683594 310.179688 477.023438 310.0625 C 477.550781 309.5625 477.894531 308.957031 478.046875 308.246094 C 478.109375 307.753906 478.109375 307.261719 478.046875 306.769531 C 478.160156 306.316406 478.160156 306.316406 477.59375 305.632812 Z M 478.160156 299.042969 C 477.667969 298.933594 477.175781 298.933594 476.683594 299.042969 C 476.144531 299.9375 475.726562 300.882812 475.433594 301.886719 C 475.433594 301.886719 475.433594 302.453125 477.023438 303.25 L 478.726562 304.269531 C 479.398438 303.171875 479.890625 302 480.203125 300.75 C 480.28125 300.066406 479.75 299.5 478.613281 299.042969 Z M 480.433594 303.25 C 479.75 304.953125 479.183594 306.089844 478.957031 306.65625 C 478.726562 307.222656 478.957031 307.566406 480.320312 308.246094 C 480.835938 308.726562 481.441406 309.027344 482.136719 309.15625 C 482.136719 309.15625 482.929688 309.15625 483.386719 307.566406 C 483.765625 307.179688 484.105469 306.761719 484.40625 306.316406 C 484.40625 305.066406 483.273438 304.15625 480.886719 303.25 Z M 480.433594 303.25 " fill-opacity="1" fill-rule="nonzero"/><path fill="#000000" d="M 597.332031 286.890625 C 596.800781 286.710938 596.269531 286.710938 595.738281 286.890625 C 595.179688 287.046875 594.648438 287.273438 594.148438 287.570312 C 584.410156 293.347656 574.296875 298.386719 563.816406 302.679688 C 562.566406 302.800781 561.316406 302.800781 560.070312 302.679688 C 556.726562 302.507812 553.523438 301.753906 550.453125 300.425781 C 547.386719 299.097656 544.644531 297.273438 542.234375 294.953125 C 536.664062 290.410156 534.054688 286.546875 534.167969 283.59375 C 533.730469 280.222656 533.882812 276.875 534.625 273.558594 C 535.367188 270.238281 536.652344 267.148438 538.484375 264.28125 C 539.445312 263.011719 540.5 261.820312 541.640625 260.710938 C 542.785156 259.597656 544.003906 258.578125 545.296875 257.652344 C 546.59375 256.722656 547.949219 255.894531 549.371094 255.171875 C 550.789062 254.449219 552.253906 253.832031 553.765625 253.328125 C 555.277344 252.824219 556.820312 252.4375 558.390625 252.164062 C 559.960938 251.894531 561.542969 251.738281 563.136719 251.707031 C 564.726562 251.671875 566.316406 251.753906 567.894531 251.957031 C 569.476562 252.164062 571.03125 252.484375 572.566406 252.921875 C 573.390625 253.523438 574.289062 253.980469 575.257812 254.296875 C 576.230469 254.609375 577.222656 254.769531 578.246094 254.769531 C 579.265625 254.769531 580.261719 254.609375 581.230469 254.296875 C 582.203125 253.980469 583.101562 253.523438 583.925781 252.921875 C 584.238281 252.515625 584.511719 252.089844 584.753906 251.640625 C 584.996094 251.191406 585.195312 250.722656 585.359375 250.242188 C 585.527344 249.757812 585.648438 249.265625 585.734375 248.761719 C 585.816406 248.257812 585.859375 247.75 585.859375 247.242188 C 585.859375 246.730469 585.816406 246.222656 585.734375 245.722656 C 585.648438 245.21875 585.527344 244.722656 585.359375 244.242188 C 585.195312 243.757812 584.996094 243.292969 584.753906 242.84375 C 584.511719 242.394531 584.238281 241.964844 583.925781 241.5625 C 578.585938 233.949219 561.203125 236.449219 549.84375 241.5625 C 547.367188 242.726562 545.003906 244.097656 542.765625 245.671875 C 540.523438 247.246094 538.433594 249 536.5 250.9375 C 534.5625 252.871094 532.804688 254.960938 531.230469 257.203125 C 529.65625 259.445312 528.289062 261.804688 527.125 264.28125 C 526.039062 266.742188 525.179688 269.28125 524.539062 271.890625 C 523.902344 274.503906 523.496094 277.152344 523.320312 279.835938 C 523.144531 282.519531 523.207031 285.195312 523.5 287.871094 C 523.796875 290.542969 524.324219 293.167969 525.078125 295.75 C 525.175781 297.644531 525.507812 299.5 526.070312 301.3125 C 526.632812 303.121094 527.410156 304.835938 528.402344 306.453125 C 529.394531 308.070312 530.570312 309.542969 531.929688 310.863281 C 533.292969 312.1875 534.792969 313.320312 536.4375 314.269531 C 532.726562 315.773438 528.941406 317.0625 525.078125 318.128906 C 521.371094 319.273438 517.585938 319.992188 513.71875 320.289062 C 509.675781 319.875 505.890625 318.660156 502.359375 316.652344 C 499.027344 314.765625 495.46875 313.554688 491.679688 313.019531 L 489.859375 313.019531 C 487.4375 313.878906 485.128906 314.976562 482.929688 316.3125 C 479.039062 318.082031 474.988281 319.332031 470.777344 320.0625 C 466.707031 319.417969 462.832031 318.175781 459.148438 316.332031 C 455.464844 314.492188 452.148438 312.136719 449.191406 309.269531 L 441.351562 300.523438 C 440.226562 299.109375 438.863281 297.988281 437.257812 297.15625 C 435.65625 296.324219 433.953125 295.855469 432.148438 295.75 C 430.382812 295.78125 428.679688 296.125 427.039062 296.773438 C 424.328125 299.542969 422.246094 302.726562 420.789062 306.316406 C 418.480469 311.140625 415.339844 315.347656 411.359375 318.925781 C 407.878906 319.667969 404.355469 320.082031 400.796875 320.175781 C 400.160156 320.234375 399.527344 320.242188 398.894531 320.199219 C 398.257812 320.160156 397.628906 320.070312 397.007812 319.929688 C 396.386719 319.789062 395.78125 319.601562 395.191406 319.367188 C 394.597656 319.132812 394.03125 318.851562 393.484375 318.527344 C 392.933594 318.203125 392.417969 317.839844 391.925781 317.433594 C 391.4375 317.027344 390.980469 316.585938 390.558594 316.109375 C 390.140625 315.628906 389.757812 315.125 389.417969 314.585938 C 389.078125 314.050781 388.78125 313.488281 388.527344 312.90625 C 385.523438 302.023438 383.480469 290.964844 382.390625 279.730469 C 382.390625 278.597656 380.460938 264.964844 377.164062 238.835938 C 376.136719 227.269531 374.015625 215.910156 370.804688 204.753906 C 370.804688 203.84375 370.464844 203.390625 369.78125 203.390625 C 369.101562 203.390625 368.417969 205.546875 367.625 209.980469 C 366.828125 214.410156 366.375 217.023438 365.691406 220.429688 C 367.507812 230.199219 368.757812 236.789062 369.441406 240.3125 C 372.167969 258.867188 374.554688 277.15625 376.597656 295.183594 C 377.117188 307.511719 379.578125 319.441406 383.980469 330.96875 C 386.367188 335.171875 392.046875 337.328125 400.796875 337.328125 C 405.566406 337.328125 410.109375 333.695312 414.65625 325.96875 C 416.648438 327.96875 418.871094 329.667969 421.316406 331.074219 C 423.765625 332.480469 426.351562 333.542969 429.082031 334.261719 C 432.730469 335.796875 436.519531 336.816406 440.445312 337.328125 C 441.402344 337.445312 442.332031 337.332031 443.234375 336.992188 C 444.140625 336.648438 444.914062 336.117188 445.554688 335.398438 C 446.691406 333.664062 447.410156 331.769531 447.714844 329.71875 C 451.09375 331.960938 454.710938 333.707031 458.570312 334.960938 C 462.425781 336.214844 466.382812 336.929688 470.433594 337.101562 C 472.609375 337.035156 474.730469 336.664062 476.796875 335.988281 C 478.867188 335.3125 480.796875 334.355469 482.589844 333.125 C 485.367188 331.148438 488.433594 329.859375 491.792969 329.261719 C 495.464844 329.789062 498.875 331.039062 502.015625 333.011719 C 505.496094 335.210938 509.28125 336.496094 513.378906 336.875 C 526.613281 334.441406 539.222656 330.160156 551.207031 324.039062 C 566.402344 318.394531 580.566406 310.824219 593.695312 301.316406 C 597.558594 290.410156 598.011719 287.230469 597.332031 286.890625 Z M 424.765625 313.472656 C 425.351562 311.730469 426.03125 310.023438 426.8125 308.359375 C 426.96875 307.957031 427.1875 307.589844 427.464844 307.261719 C 427.746094 306.929688 428.066406 306.652344 428.4375 306.425781 C 428.804688 306.199219 429.199219 306.039062 429.621094 305.941406 C 430.042969 305.84375 430.46875 305.820312 430.902344 305.859375 C 434.535156 305.859375 438.058594 310.632812 441.464844 319.722656 Z M 424.765625 313.472656 " fill-opacity="1" fill-rule="nonzero"/><path fill="#000000" d="M 638.113281 181.351562 C 623.152344 181.269531 608.269531 180.132812 593.46875 177.941406 C 575.292969 175.292969 561.773438 173.246094 552.910156 171.808594 C 558.761719 166.585938 565.425781 162.800781 572.90625 160.449219 C 579.730469 157.632812 586.8125 155.8125 594.148438 154.996094 C 595.3125 154.894531 596.449219 154.65625 597.554688 154.285156 C 598.664062 153.914062 599.710938 153.417969 600.699219 152.792969 C 601.6875 152.171875 602.585938 151.441406 603.398438 150.601562 C 604.214844 149.765625 604.917969 148.84375 605.511719 147.835938 C 607.042969 145.828125 608.261719 143.648438 609.171875 141.289062 C 610.078125 138.933594 610.640625 136.496094 610.847656 133.976562 C 610.847656 131.820312 609.144531 129.886719 605.625 127.957031 L 593.128906 122.503906 C 592.195312 122.039062 591.210938 121.773438 590.171875 121.707031 C 588.128906 121.707031 586.199219 123.1875 584.265625 126.140625 L 578.8125 135.910156 C 578.316406 136.910156 578.089844 137.972656 578.132812 139.089844 C 578.054688 139.675781 578.058594 140.261719 578.148438 140.84375 C 578.242188 141.425781 578.410156 141.984375 578.664062 142.519531 C 578.914062 143.054688 579.238281 143.542969 579.628906 143.980469 C 580.023438 144.421875 580.46875 144.800781 580.972656 145.109375 C 572.867188 147.183594 565.292969 150.476562 558.25 154.996094 C 551.949219 158.683594 546.347656 163.226562 541.4375 168.628906 C 537.914062 171.925781 535.035156 175.710938 532.804688 179.988281 C 532.402344 181.011719 532.402344 182.03125 532.804688 183.054688 C 532.804688 184.304688 533.941406 184.988281 534.734375 184.988281 C 542.40625 185.398438 549.980469 186.496094 557.457031 188.28125 C 568.816406 190.4375 576.425781 191.800781 580.175781 192.144531 C 572.371094 196.265625 564.21875 199.503906 555.710938 201.863281 C 547.207031 204.21875 538.546875 205.636719 529.734375 206.117188 C 525.6875 205.472656 521.828125 204.226562 518.164062 202.386719 C 514.5 200.542969 511.199219 198.191406 508.265625 195.324219 L 500.3125 186.578125 C 499.203125 185.171875 497.859375 184.054688 496.277344 183.222656 C 494.691406 182.394531 493.007812 181.921875 491.222656 181.804688 C 489.421875 181.847656 487.683594 182.1875 486 182.828125 C 483.582031 185.589844 481.652344 188.65625 480.203125 192.03125 C 477.933594 196.886719 474.792969 201.089844 470.777344 204.640625 C 467.328125 205.375 463.847656 205.789062 460.324219 205.890625 C 453.167969 205.890625 446.011719 198.050781 438.625 183.167969 C 434.195312 172.832031 429.878906 162.492188 425.449219 152.042969 C 423.972656 148.859375 422.722656 147.15625 421.925781 147.15625 C 421.128906 147.15625 420.449219 148.859375 420.109375 152.269531 C 419.878906 155.222656 419.878906 158.175781 420.109375 161.128906 C 422.183594 166.339844 423.851562 171.679688 425.105469 177.148438 C 426.816406 182.214844 427.992188 187.402344 428.628906 192.710938 C 428.632812 194.296875 428.425781 195.851562 428.007812 197.378906 C 427.589844 198.90625 426.976562 200.347656 426.164062 201.710938 C 425.355469 203.070312 424.378906 204.296875 423.234375 205.394531 C 422.089844 206.488281 420.820312 207.410156 419.425781 208.160156 C 416.515625 209.964844 413.40625 211.3125 410.097656 212.199219 C 406.789062 213.089844 403.425781 213.484375 400 213.386719 C 395.796875 213.386719 393.296875 212.480469 392.503906 210.773438 C 392.136719 207.632812 392.136719 204.488281 392.503906 201.34375 C 392.503906 200.324219 392.503906 199.753906 391.480469 199.867188 C 390.601562 200.257812 389.996094 200.898438 389.664062 201.800781 C 386.976562 206.84375 385.535156 212.21875 385.34375 217.929688 C 385.398438 219.753906 385.757812 221.511719 386.421875 223.207031 C 387.085938 224.902344 388.011719 226.441406 389.207031 227.816406 C 389.726562 228.488281 390.3125 229.09375 390.964844 229.636719 C 391.617188 230.175781 392.320312 230.640625 393.078125 231.023438 C 393.835938 231.40625 394.625 231.699219 395.449219 231.90625 C 396.273438 232.113281 397.105469 232.226562 397.957031 232.246094 C 400.574219 232.445312 403.179688 232.339844 405.773438 231.9375 C 408.367188 231.53125 410.882812 230.835938 413.316406 229.851562 C 415.75 228.867188 418.039062 227.617188 420.183594 226.101562 C 422.328125 224.589844 424.273438 222.847656 426.015625 220.886719 C 427.421875 219.1875 428.664062 217.378906 429.738281 215.453125 C 430.816406 213.53125 431.707031 211.523438 432.417969 209.4375 C 433.125 207.351562 433.636719 205.21875 433.957031 203.035156 C 434.273438 200.855469 434.390625 198.664062 434.308594 196.460938 C 434.308594 195.324219 434.308594 194.300781 434.308594 193.28125 C 436.882812 199.769531 439.953125 206.015625 443.511719 212.023438 C 444.363281 213.71875 445.410156 215.28125 446.652344 216.714844 C 447.894531 218.144531 449.296875 219.402344 450.855469 220.484375 C 452.410156 221.566406 454.078125 222.4375 455.855469 223.101562 C 457.628906 223.765625 459.460938 224.203125 461.347656 224.40625 C 466.003906 224.40625 470.660156 220.773438 475.09375 213.046875 C 477.09375 215.035156 479.320312 216.730469 481.765625 218.136719 C 484.210938 219.542969 486.796875 220.609375 489.519531 221.339844 C 493.171875 222.867188 496.957031 223.890625 500.878906 224.40625 C 501.824219 224.535156 502.738281 224.425781 503.628906 224.082031 C 504.515625 223.738281 505.265625 223.203125 505.878906 222.476562 C 507.011719 220.734375 507.769531 218.839844 508.152344 216.796875 C 511.527344 219.046875 515.144531 220.800781 519.003906 222.054688 C 522.859375 223.308594 526.816406 224.019531 530.871094 224.179688 C 537.992188 224.105469 544.808594 222.628906 551.320312 219.75 C 571.316406 211.34375 585.402344 205.664062 593.011719 202.820312 C 602.285156 199.167969 611.90625 197.238281 621.867188 197.027344 L 630.390625 197.027344 C 630.972656 196.964844 631.535156 196.824219 632.078125 196.609375 C 632.621094 196.394531 633.128906 196.113281 633.597656 195.765625 C 634.066406 195.414062 634.484375 195.011719 634.84375 194.550781 C 635.207031 194.089844 635.5 193.589844 635.730469 193.050781 C 636.863281 190.4375 638 187.710938 639.25 185.101562 C 640.5 182.488281 640.273438 181.351562 638.113281 181.351562 Z M 485.089844 199.867188 L 487.132812 194.757812 C 487.328125 194.394531 487.574219 194.074219 487.867188 193.789062 C 488.160156 193.503906 488.488281 193.269531 488.855469 193.085938 C 489.222656 192.902344 489.605469 192.78125 490.011719 192.714844 C 490.414062 192.652344 490.820312 192.652344 491.222656 192.710938 C 494.972656 192.710938 498.496094 197.484375 501.789062 206.570312 Z M 485.089844 199.867188 " fill-opacity="1" fill-rule="nonzero"/><path fill="#000000" d="M 655.949219 280.980469 C 654.363281 279.601562 652.582031 278.539062 650.609375 277.800781 C 648.792969 278.710938 646.632812 282.570312 644.25 289.160156 C 645.480469 291.21875 647.035156 293 648.90625 294.5 C 650.542969 296.160156 652.472656 297.335938 654.699219 298.023438 C 656.40625 298.023438 657.882812 295.75 659.246094 292.113281 C 660.117188 290.234375 660.683594 288.265625 660.949219 286.207031 C 660.722656 285.183594 659.359375 283.59375 655.949219 280.980469 Z M 633.230469 283.707031 C 633.230469 284.390625 631.753906 286.207031 630.164062 289.273438 C 628.570312 292.34375 627.320312 294.953125 627.550781 295.523438 C 627.777344 296.089844 629.59375 298.136719 633.117188 300.292969 C 634.984375 301.667969 637.03125 302.6875 639.25 303.363281 C 640.386719 303.363281 641.410156 301.542969 642.660156 298.25 C 643.660156 296.324219 644.078125 294.277344 643.910156 292.113281 C 642.457031 290.234375 640.785156 288.570312 638.898438 287.128906 C 637.011719 285.683594 634.96875 284.503906 632.773438 283.59375 Z M 633.230469 283.707031 " fill-opacity="1" fill-rule="nonzero"/><path fill="#000000" d="M 747.628906 146.472656 C 747.453125 145.871094 747.226562 145.285156 746.953125 144.714844 C 746.679688 144.148438 746.363281 143.609375 746 143.09375 C 745.636719 142.578125 745.234375 142.097656 744.789062 141.648438 C 744.347656 141.203125 743.871094 140.796875 743.359375 140.425781 C 742.847656 140.058594 742.308594 139.734375 741.742188 139.457031 C 741.179688 139.179688 740.59375 138.949219 739.992188 138.765625 C 739.386719 138.585938 738.773438 138.457031 738.148438 138.375 C 737.523438 138.296875 736.898438 138.269531 736.269531 138.296875 C 734.523438 138.511719 732.898438 139.078125 731.394531 139.988281 C 729.890625 140.898438 728.636719 142.078125 727.632812 143.519531 C 724.617188 147.167969 722.417969 151.257812 721.046875 155.789062 L 719 155.789062 C 719 155.789062 715.25 159.878906 708.890625 167.152344 C 707.179688 168.832031 705.230469 170.164062 703.042969 171.140625 C 700.851562 172.121094 698.558594 172.683594 696.167969 172.832031 C 691.410156 173.71875 686.828125 175.160156 682.421875 177.148438 C 675.738281 179.914062 669.375 183.285156 663.335938 187.257812 C 658.476562 189.972656 654.035156 193.253906 650.011719 197.105469 C 645.992188 200.953125 642.519531 205.246094 639.589844 209.980469 C 638.875 211.546875 638.34375 213.175781 638 214.863281 C 638 217.476562 640.726562 220.542969 646.179688 223.953125 L 661.402344 227.132812 C 667.992188 228.496094 672.082031 230.769531 673.558594 233.949219 C 662.824219 240.925781 651.511719 246.785156 639.621094 251.527344 C 627.726562 256.269531 615.488281 259.800781 602.898438 262.125 C 566.785156 270.070312 530.242188 273.855469 493.269531 273.484375 C 487.058594 273.554688 480.855469 273.386719 474.660156 272.984375 C 468.464844 272.582031 462.292969 271.941406 456.144531 271.070312 C 449.996094 270.199219 443.890625 269.09375 437.828125 267.753906 C 431.761719 266.417969 425.757812 264.851562 419.8125 263.058594 C 413.871094 261.265625 408 259.246094 402.210938 257.007812 C 396.417969 254.765625 390.722656 252.308594 385.117188 249.636719 C 379.511719 246.960938 374.019531 244.078125 368.632812 240.984375 C 363.25 237.894531 357.988281 234.601562 352.855469 231.109375 C 350.21875 228.925781 347.265625 227.335938 343.992188 226.339844 C 343.992188 226.339844 343.3125 226.339844 343.3125 227.132812 C 344.019531 229.707031 345.234375 232.015625 346.945312 234.0625 C 357.503906 247.902344 369.925781 259.792969 384.210938 269.734375 C 402.417969 277.988281 421.351562 283.933594 441.011719 287.570312 C 459.441406 290.605469 478 292.007812 496.675781 291.773438 C 529.746094 291.542969 562.351562 287.527344 594.492188 279.730469 C 636.410156 269.847656 663.449219 257.011719 675.71875 240.992188 C 677.316406 238.066406 678.527344 234.988281 679.351562 231.757812 C 680.179688 228.523438 680.597656 225.242188 680.601562 221.90625 C 680.601562 218.5 674.46875 215.660156 663.105469 213.386719 C 657.996094 212.742188 652.957031 211.71875 647.996094 210.320312 C 650.003906 207.980469 652.253906 205.910156 654.75 204.105469 C 657.246094 202.300781 659.917969 200.8125 662.765625 199.640625 C 673.5625 194.46875 684.921875 191.363281 696.847656 190.324219 C 698.171875 190.113281 699.457031 189.75 700.695312 189.238281 C 701.9375 188.730469 703.105469 188.085938 704.199219 187.308594 C 705.292969 186.53125 706.28125 185.636719 707.171875 184.632812 C 708.058594 183.625 708.820312 182.53125 709.457031 181.351562 C 711.359375 177.3125 713.667969 173.527344 716.386719 169.992188 C 720.960938 173.3125 726.035156 175.433594 731.609375 176.351562 C 734.335938 176.351562 737.40625 177.261719 740.585938 177.488281 C 742.058594 176.730469 743.359375 175.746094 744.492188 174.539062 C 745.621094 173.328125 746.515625 171.964844 747.175781 170.445312 C 748.980469 167.195312 749.964844 163.710938 750.128906 159.992188 C 750.164062 155.328125 749.332031 150.820312 747.628906 146.472656 Z M 725.703125 156.699219 L 727.519531 154.3125 C 728.613281 153.082031 729.976562 152.363281 731.609375 152.15625 C 732.214844 152.015625 732.824219 151.980469 733.4375 152.050781 C 734.050781 152.121094 734.636719 152.289062 735.195312 152.554688 C 735.753906 152.824219 736.25 153.179688 736.6875 153.617188 C 737.125 154.054688 737.476562 154.550781 737.746094 155.109375 C 738.398438 157.351562 738.929688 159.625 739.335938 161.925781 C 736.875 161.664062 734.488281 161.09375 732.175781 160.207031 C 729.863281 159.320312 727.707031 158.152344 725.703125 156.699219 Z M 725.703125 156.699219 " fill-opacity="1" fill-rule="nonzero"/><g clip-path="url(#7252c33a2d)"><path fill="#000000" d="M 824.425781 185.101562 C 824.457031 191.851562 823.058594 198.289062 820.222656 204.414062 C 819.765625 205.867188 819.117188 207.226562 818.269531 208.492188 C 817.421875 209.757812 816.417969 210.878906 815.25 211.855469 C 814.082031 212.832031 812.796875 213.625 811.402344 214.234375 C 810.007812 214.839844 808.554688 215.242188 807.042969 215.433594 C 804.269531 215.425781 801.695312 214.707031 799.320312 213.273438 L 791.707031 208.617188 C 791.191406 209.71875 790.570312 210.757812 789.84375 211.734375 C 789.117188 212.710938 788.300781 213.605469 787.394531 214.417969 C 786.484375 215.226562 785.503906 215.9375 784.453125 216.546875 C 783.398438 217.160156 782.296875 217.660156 781.140625 218.046875 C 778.523438 219.109375 775.832031 219.925781 773.0625 220.5 C 770.296875 221.070312 767.5 221.382812 764.675781 221.441406 C 761.851562 221.5 759.042969 221.300781 756.253906 220.84375 C 753.464844 220.386719 750.742188 219.683594 748.082031 218.726562 C 743.441406 220.40625 738.707031 221.769531 733.882812 222.816406 C 727.6875 223.996094 721.441406 224.679688 715.136719 224.863281 C 706.390625 224.863281 700.710938 222.703125 698.324219 218.5 C 693.925781 206.96875 691.425781 195.039062 690.828125 182.714844 C 688.859375 164.6875 686.472656 146.398438 683.667969 127.84375 C 682.988281 124.320312 681.738281 117.734375 680.035156 107.960938 C 680.714844 104.554688 681.285156 101.03125 681.964844 97.511719 C 682.648438 93.988281 683.441406 90.921875 684.125 90.921875 C 684.804688 90.921875 684.691406 90.921875 685.144531 92.285156 C 688.300781 103.453125 690.421875 114.8125 691.507812 126.367188 C 694.804688 152.496094 696.507812 166.128906 696.734375 167.265625 C 697.75 178.5 699.757812 189.558594 702.753906 200.4375 C 703.011719 201.023438 703.316406 201.585938 703.660156 202.125 C 704.007812 202.664062 704.394531 203.171875 704.820312 203.648438 C 705.246094 204.128906 705.707031 204.570312 706.199219 204.976562 C 706.695312 205.382812 707.21875 205.75 707.773438 206.074219 C 708.324219 206.398438 708.898438 206.675781 709.496094 206.910156 C 710.089844 207.144531 710.699219 207.332031 711.324219 207.46875 C 711.953125 207.609375 712.582031 207.699219 713.222656 207.738281 C 713.863281 207.777344 714.5 207.765625 715.136719 207.707031 C 720.472656 207.875 725.765625 207.472656 731.015625 206.496094 C 736.265625 205.519531 741.347656 203.992188 746.265625 201.914062 C 748.164062 201.105469 749.894531 200.035156 751.464844 198.699219 C 753.035156 197.359375 754.371094 195.820312 755.46875 194.074219 C 756.261719 191.800781 757.058594 189.53125 757.964844 187.257812 C 758.875 184.988281 759.558594 184.871094 760.011719 184.871094 C 760.464844 184.871094 761.261719 187.144531 760.011719 191.574219 C 759.214844 194.074219 758.308594 197.484375 757.171875 201.914062 C 759.796875 202.445312 762.445312 202.675781 765.125 202.59375 C 777.734375 202.59375 785.914062 199.753906 789.664062 193.847656 C 791.59375 189.304688 793.410156 184.871094 795.230469 180.328125 C 797.160156 177.941406 798.523438 176.808594 799.433594 176.808594 C 800.339844 176.808594 800.226562 177.375 800.226562 178.511719 C 800.101562 181.058594 799.683594 183.558594 798.976562 186.007812 C 798.183594 189.53125 797.726562 191.347656 797.726562 191.574219 C 799.394531 193.429688 801.324219 194.945312 803.523438 196.121094 C 805.871094 196.738281 808.257812 197.15625 810.679688 197.371094 L 814.996094 195.664062 C 815.265625 194.039062 815.039062 192.488281 814.3125 191.007812 C 813.871094 190.480469 813.605469 189.875 813.519531 189.191406 C 813.796875 187.191406 814.402344 185.296875 815.335938 183.507812 C 816.621094 180.460938 817.605469 177.316406 818.289062 174.082031 C 818.289062 173.171875 818.289062 172.601562 819.199219 172.601562 C 820.109375 172.601562 821.128906 174.308594 822.378906 177.601562 C 823.464844 179.992188 824.144531 182.492188 824.425781 185.101562 Z M 824.425781 185.101562 " fill-opacity="1" fill-rule="nonzero"/></g></svg>